<svg width="200" height="200" viewBox="0 0 200 200" fill="none" xmlns="http://www.w3.org/2000/svg">
<g clip-path="url(#clip0_42_10)">
<rect y="150.588" width="200" height="49.4118" fill="#A0A0A0"/>
<rect x="2.35254" y="123.529" width="200" height="27.0588" fill="#868686"/>
<rect x="-1.76465" y="71.7646" width="200" height="27.0588" fill="#555555"/>
<rect x="-1.76465" y="98.8237" width="200" height="24.7059" fill="#6B6B6B"/>
<rect x="2.35254" y="44.7061" width="200" height="27.0588" fill="#3D3D3D"/>
<rect width="200" height="44.7059" fill="#212121"/>
<path fill-rule="evenodd" clip-rule="evenodd" d="M124.562 88.9946V101.801H127.91C133.795 102.144 138.298 107.178 137.985 113.065C138.289 118.947 133.789 123.971 127.91 124.313H124.562C123.881 132.689 116.965 139.186 108.563 139.343H88.456C79.3884 139.138 72.199 131.63 72.3874 122.562V88.9946H124.562Z" stroke="black" stroke-width="8.03427" stroke-linecap="round" stroke-linejoin="round"/>
<path d="M108.565 135.326C106.346 135.326 104.548 137.124 104.548 139.343C104.548 141.561 106.346 143.36 108.565 143.36V135.326ZM137.986 143.36C140.205 143.36 142.003 141.561 142.003 139.343C142.003 137.124 140.205 135.326 137.986 135.326V143.36ZM88.4579 143.36C90.6765 143.36 92.4751 141.561 92.4751 139.343C92.4751 137.124 90.6765 135.326 88.4579 135.326V143.36ZM63 135.326C60.7814 135.326 58.9829 137.124 58.9829 139.343C58.9829 141.561 60.7814 143.36 63 143.36V135.326ZM128.581 101.803C128.581 99.5842 126.783 97.7856 124.564 97.7856C122.346 97.7856 120.547 99.5842 120.547 101.803H128.581ZM120.547 124.347C120.547 126.566 122.346 128.364 124.564 128.364C126.783 128.364 128.581 126.566 128.581 124.347H120.547ZM83.9667 81.0712C85.717 82.4345 88.241 82.1208 89.6044 80.3705C90.9677 78.6201 90.6539 76.0961 88.9036 74.7327L83.9667 81.0712ZM81.7656 68.5152L85.7824 68.4583L81.7656 68.5152ZM88.7246 62.098C90.4356 60.6857 90.6777 58.1537 89.2653 56.4427C87.853 54.7317 85.321 54.4896 83.61 55.902L88.7246 62.098ZM98.0277 81.0712C99.778 82.4345 102.302 82.1208 103.665 80.3705C105.029 78.6201 104.715 76.0961 102.965 74.7327L98.0277 81.0712ZM95.8266 68.5152L99.8434 68.4583L95.8266 68.5152ZM102.786 62.098C104.497 60.6857 104.739 58.1537 103.326 56.4427C101.914 54.7317 99.382 54.4896 97.6711 55.902L102.786 62.098ZM112.087 81.0712C113.838 82.4345 116.362 82.1208 117.725 80.3705C119.089 78.6201 118.775 76.0961 117.024 74.7327L112.087 81.0712ZM109.886 68.5152L113.903 68.4583L109.886 68.5152ZM116.845 62.098C118.556 60.6857 118.799 58.1537 117.386 56.4427C115.974 54.7317 113.442 54.4896 111.731 55.902L116.845 62.098ZM108.565 143.36H137.986V135.326H108.565V143.36ZM88.4579 135.326H63V143.36H88.4579V135.326ZM120.547 101.803V124.347H128.581V101.803H120.547ZM88.9036 74.7327C86.9653 73.223 85.8172 70.915 85.7824 68.4583L77.7489 68.5722C77.8182 73.466 80.1054 78.0637 83.9667 81.0712L88.9036 74.7327ZM85.7824 68.4583C85.7476 66.0017 86.8299 63.6621 88.7246 62.098L83.61 55.902C79.8356 59.0177 77.6796 63.6784 77.7489 68.5722L85.7824 68.4583ZM102.965 74.7327C101.026 73.223 99.8782 70.915 99.8434 68.4583L91.8099 68.5722C91.8792 73.466 94.1664 78.0637 98.0277 81.0712L102.965 74.7327ZM99.8434 68.4583C99.8086 66.0017 100.891 63.6621 102.786 62.098L97.6711 55.902C93.8966 59.0177 91.7406 63.6784 91.8099 68.5722L99.8434 68.4583ZM117.024 74.7327C115.086 73.223 113.938 70.915 113.903 68.4583L105.87 68.5722C105.939 73.466 108.226 78.0637 112.087 81.0712L117.024 74.7327ZM113.903 68.4583C113.868 66.0017 114.951 63.6621 116.845 62.098L111.731 55.902C107.956 59.0177 105.8 63.6784 105.87 68.5722L113.903 68.4583Z" fill="black"/>
</g>
<rect x="7.35294" y="7.35294" width="185.294" height="185.294" rx="92.6471" stroke="black" stroke-width="14.7059"/>
<defs>
<clipPath id="clip0_42_10">
<rect width="200" height="200" rx="100" fill="white"/>
</clipPath>
</defs>
</svg>
