<svg width="200" height="200" viewBox="0 0 200 200" fill="none" xmlns="http://www.w3.org/2000/svg">
    <g clip-path="url(#clip0_35_395)">
        <rect y="150.588" width="200" height="49.4118" fill="#FCB040" />
        <rect x="2.35254" y="123.529" width="200" height="27.0588" fill="#868686" />
        <rect x="-1.76465" y="71.7646" width="200" height="27.0588" fill="#555555" />
        <rect x="-1.76465" y="98.8237" width="200" height="24.7059" fill="#6B6B6B" />
        <rect x="2.35254" y="44.7061" width="200" height="27.0588" fill="#3D3D3D" />
        <rect width="200" height="44.7059" fill="#212121" />
        <path
            d="M112.059 94.4119L125 81.4707L132.647 89.4119L140 105.882L152.059 120.294L158.53 135L172.353 154.412L171.177 184.118H92.9414L112.059 94.4119Z"
            fill="white" />
        <path
            d="M50.8833 117.058L63.8244 104.117L71.4715 112.058L80.8833 127.941L96.1774 136.47L97.3539 157.647L111.177 177.058L110.001 206.764H31.7656L50.8833 117.058Z"
            fill="white" />
        <g filter="url(#filter0_d_35_395)">
            <path
                d="M47.4391 189.293L46.4699 186.177L71.6229 152.959L88.9803 134.352L96.3088 113.917L107.969 97.306L114.458 85.4272L119.89 79.2745L123.205 75.2944L133.454 86.3743L139.913 105.581L150.712 114.282L156.802 126.11L161.524 136.315L177.276 155.482L191.176 185.992L189.862 188.523L176.25 158.533L160.502 139.374L155.53 128.724L149.891 117.597L138.747 108.617L132.227 89.2302L125.007 81.4218L129.023 101.839L128.396 125.694L142.691 148.585L144.281 161.696L162.56 186.184L161.581 189.286L143.677 188.573C143.273 187.268 139.208 179.916 135.478 173.499L124.77 163.207L118.007 152.81L110.801 148.277L112.212 168.362L118.139 179.464L124.354 186.13L123.524 189.412L77.7873 189.394L47.4391 189.293Z"
                fill="black" />
            <path
                d="M-13.7387 189.319L-14.7078 186.893L10.4451 161.038L27.8025 146.556L35.131 130.65L46.791 117.721L53.2803 108.475L58.7126 103.686L62.0275 100.588L72.2767 109.212L78.7352 124.161L89.534 130.934L95.6247 140.14L100.346 148.083L116.099 163.002L129.998 186.75L128.685 188.719L115.072 165.377L99.3241 150.464L94.3518 142.175L88.7132 133.514L77.5694 126.525L71.0494 111.435L63.8289 105.357L67.8452 121.249L67.2184 139.817L81.5128 157.633L83.1036 167.839L101.383 186.899L100.403 189.313L82.4996 188.759C82.0949 187.743 78.0303 182.02 74.3002 177.025L63.5927 169.015L56.8296 160.923L49.6231 157.394L51.0347 173.027L56.9612 181.668L63.1766 186.857L62.3461 189.411L16.6096 189.397L-13.7387 189.319Z"
                fill="black" />
        </g>
    </g>
    <rect x="7.35294" y="7.35294" width="185.294" height="185.294" rx="92.6471" stroke="black"
        stroke-width="14.7059" />
    <defs>
        <filter id="filter0_d_35_395" x="-20.5904" y="71.765" width="217.648" height="125.882"
            filterUnits="userSpaceOnUse" color-interpolation-filters="sRGB">
            <feFlood flood-opacity="0" result="BackgroundImageFix" />
            <feColorMatrix in="SourceAlpha" type="matrix"
                values="0 0 0 0 0 0 0 0 0 0 0 0 0 0 0 0 0 0 127 0" result="hardAlpha" />
            <feOffset dy="2.35294" />
            <feGaussianBlur stdDeviation="2.94118" />
            <feComposite in2="hardAlpha" operator="out" />
            <feColorMatrix type="matrix" values="0 0 0 0 0 0 0 0 0 0 0 0 0 0 0 0 0 0 0.25 0" />
            <feBlend mode="normal" in2="BackgroundImageFix" result="effect1_dropShadow_35_395" />
            <feBlend mode="normal" in="SourceGraphic" in2="effect1_dropShadow_35_395" result="shape" />
        </filter>
        <clipPath id="clip0_35_395">
            <rect width="200" height="200" rx="100" fill="white" />
        </clipPath>
    </defs>
</svg>