<svg width="200" height="200" viewBox="0 0 200 200" fill="none" xmlns="http://www.w3.org/2000/svg">
<g clip-path="url(#clip0_35_395)">
<rect y="150.588" width="200" height="49.4118" fill="#A0A0A0"/>
<rect x="2.35254" y="123.529" width="200" height="27.0588" fill="#868686"/>
<rect x="-1.76465" y="71.7646" width="200" height="27.0588" fill="#555555"/>
<rect x="-1.76465" y="98.8237" width="200" height="24.7059" fill="#6B6B6B"/>
<rect x="2.35254" y="44.7061" width="200" height="27.0588" fill="#3D3D3D"/>
<rect width="200" height="44.7059" fill="#212121"/>
<g filter="url(#filter0_d_35_395)">
<path d="M39 94.3C39 97.669 41.7311 100.4 45.1 100.4H63.4V82.1C63.4 78.731 60.6689 76 57.3 76H45.1C41.7311 76 39 78.731 39 82.1V94.3Z" fill="#0F0F0F"/>
<path d="M87.8005 100.4H112.2V82.1C112.2 78.731 109.469 76 106.1 76H93.9005C90.5315 76 87.8005 78.731 87.8005 82.1V100.4Z" fill="#0F0F0F"/>
<path d="M63.4002 118.7C63.4002 122.069 66.1313 124.8 69.5002 124.8H81.7002C85.0692 124.8 87.8002 122.069 87.8002 118.7L87.8005 100.4H63.4L63.4002 118.7Z" fill="#0F0F0F"/>
<path d="M136.6 100.4H154.9C158.269 100.4 161 97.669 161 94.3V82.1C161 78.731 158.269 76 154.9 76H142.7C139.331 76 136.6 78.731 136.6 82.1V100.4Z" fill="#0F0F0F"/>
<path d="M112.2 118.7C112.2 122.069 114.931 124.8 118.3 124.8H130.5C133.869 124.8 136.6 122.069 136.6 118.7L136.6 100.4H112.2L112.2 118.7Z" fill="#0F0F0F"/>
</g>
</g>
<rect x="7.35294" y="7.35294" width="185.294" height="185.294" rx="92.6471" stroke="black" stroke-width="14.7059"/>
<defs>
<filter id="filter0_d_35_395" x="39" y="76" width="122" height="51.0349" filterUnits="userSpaceOnUse" color-interpolation-filters="sRGB">
<feFlood flood-opacity="0" result="BackgroundImageFix"/>
<feColorMatrix in="SourceAlpha" type="matrix" values="0 0 0 0 0 0 0 0 0 0 0 0 0 0 0 0 0 0 127 0" result="hardAlpha"/>
<feOffset dy="2.23511"/>
<feComposite in2="hardAlpha" operator="out"/>
<feColorMatrix type="matrix" values="0 0 0 0 0 0 0 0 0 0 0 0 0 0 0 0 0 0 0.25 0"/>
<feBlend mode="normal" in2="BackgroundImageFix" result="effect1_dropShadow_35_395"/>
<feBlend mode="normal" in="SourceGraphic" in2="effect1_dropShadow_35_395" result="shape"/>
</filter>
<clipPath id="clip0_35_395">
<rect width="200" height="200" rx="100" fill="white"/>
</clipPath>
</defs>
</svg>
